<svg width="1440" height="5597" viewBox="0 0 1440 5597" fill="none" xmlns="http://www.w3.org/2000/svg">
<g clip-path="url(#clip0_38_9)">
<rect width="1440" height="5597" fill="#302C42"/>
<path d="M1446 170C1356.77 184.843 1186.91 269.224 1221.27 487.998C1255.63 706.772 1109.41 813.155 1032 839" stroke="url(#paint0_linear_38_9)" stroke-width="6"/>
<path d="M1451.5 420.5C1204.67 408.333 712.1 474.9 716.5 838.5" stroke="url(#paint1_linear_38_9)" stroke-width="6"/>
<path d="M938.193 0C934.912 140.127 972.209 433.314 1147.64 485.053C1323.08 536.792 1326.78 746.576 1306.7 845" stroke="url(#paint2_linear_38_9)" stroke-width="6"/>
<path d="M11.5 274C114.5 312.167 303.4 477.8 235 835" stroke="url(#paint3_linear_38_9)" stroke-opacity="0.06" stroke-width="6"/>
<path d="M1451.5 1480C1396.5 1369.33 1251.8 1181.2 1113 1314C939.5 1480 770.5 1596.5 563.5 1468.5C356.5 1340.5 43.5 1440.5 2.5 1525" stroke="url(#paint4_linear_38_9)" stroke-opacity="0.13" stroke-width="6"/>
<path d="M4.5 1624.5C162.667 1571.17 513.6 1496.5 652 1624.5C825 1784.5 1080.5 1808.5 1195.5 1696C1287.5 1606 1403.17 1620.83 1449.5 1639.5" stroke="url(#paint5_linear_38_9)" stroke-opacity="0.13" stroke-width="6"/>
<path d="M6 2415.21C105.569 2438.83 309.21 2542.64 327.223 2768.99C345.235 2995.34 689.641 3014.31 859.592 2995.51C968 2975 1148.69 2873.08 1004.19 2629.43C859.692 2385.78 1239.86 2232.95 1448 2187" stroke="url(#paint6_linear_38_9)" stroke-opacity="0.13" stroke-width="6"/>
<path d="M0 3683.73C15.4775 3733.42 97.0505 3843.24 254.37 3768.77C359.5 3719 414.361 3664.73 548.107 3753.26C681.853 3841.8 785.317 3835.8 850.423 3744.26C915.53 3652.72 1085.11 3628.21 1148.7 3736.76C1212.29 3845.3 1426.79 3858.3 1449 3768.77" stroke="url(#paint7_linear_38_9)" stroke-width="6"/>
<path d="M1448.5 5165C1324.17 5176.33 1093.71 5271.76 966 5377C804 5510.5 552.167 5356 400 5259C292.5 5192 64.3 5125.7 11.5 5396.5" stroke="url(#paint8_linear_38_9)" stroke-opacity="0.13" stroke-width="6"/>
<path d="M13.5 5249C55.3333 5180.5 223.9 5074.2 563.5 5197C903.1 5319.8 1295 5040.83 1448.5 4886" stroke="url(#paint9_linear_38_9)" stroke-opacity="0.13" stroke-width="6"/>
</g>
<defs>
<linearGradient id="paint0_linear_38_9" x1="1396.5" y1="195" x2="1141" y2="761" gradientUnits="userSpaceOnUse">
<stop stop-color="#343045"/>
<stop offset="0.276042" stop-color="#8176AF"/>
<stop offset="0.739583" stop-color="#C0B7E8"/>
<stop offset="1" stop-color="#343045"/>
</linearGradient>
<linearGradient id="paint1_linear_38_9" x1="1413.5" y1="412" x2="727.5" y2="777" gradientUnits="userSpaceOnUse">
<stop stop-color="#343045"/>
<stop offset="0.213542" stop-color="#C0B7E8"/>
<stop offset="0.71875" stop-color="#8176AF"/>
<stop offset="1" stop-color="#343045"/>
</linearGradient>
<linearGradient id="paint2_linear_38_9" x1="951.5" y1="39.5" x2="1298" y2="814" gradientUnits="userSpaceOnUse">
<stop offset="0.0104167" stop-color="#343045"/>
<stop offset="0.229167" stop-color="#C0B7E8"/>
<stop offset="0.776042" stop-color="#8176AF"/>
<stop offset="1" stop-color="#343045"/>
</linearGradient>
<linearGradient id="paint3_linear_38_9" x1="-13.5" y1="233.5" x2="343" y2="873.5" gradientUnits="userSpaceOnUse">
<stop stop-color="#343045"/>
<stop offset="0.151042" stop-color="#C0B7E8"/>
<stop offset="0.760417" stop-color="#8176AF"/>
<stop offset="0.973958" stop-color="#343045"/>
</linearGradient>
<linearGradient id="paint4_linear_38_9" x1="2" y1="1370.5" x2="1452" y2="1354" gradientUnits="userSpaceOnUse">
<stop stop-color="#211E2E"/>
<stop offset="0.3125" stop-color="#C0B7E8"/>
<stop offset="0.765625" stop-color="#8176AF"/>
<stop offset="0.994792" stop-color="#211E2E"/>
</linearGradient>
<linearGradient id="paint5_linear_38_9" x1="4" y1="1613" x2="1471" y2="1613" gradientUnits="userSpaceOnUse">
<stop stop-color="#343045"/>
<stop offset="0.224242" stop-color="#C0B7E8"/>
<stop offset="0.786458" stop-color="#8176AF"/>
<stop offset="0.96875" stop-color="#343045"/>
</linearGradient>
<linearGradient id="paint6_linear_38_9" x1="727" y1="2187" x2="727" y2="3001" gradientUnits="userSpaceOnUse">
<stop offset="0.0260417" stop-color="#C0B7E8"/>
<stop offset="0.265625" stop-color="#C0B7E8"/>
<stop offset="0.71875" stop-color="#8176AF"/>
<stop offset="1" stop-color="#343045"/>
</linearGradient>
<linearGradient id="paint7_linear_38_9" x1="9.49999" y1="3747" x2="1449" y2="3747" gradientUnits="userSpaceOnUse">
<stop stop-color="#343045"/>
<stop offset="0.302083" stop-color="#C0B7E8"/>
<stop offset="0.739583" stop-color="#8176AF"/>
<stop offset="1" stop-color="#343045"/>
</linearGradient>
<linearGradient id="paint8_linear_38_9" x1="1448.5" y1="5165.63" x2="11.5" y2="5165.63" gradientUnits="userSpaceOnUse">
<stop stop-color="#343045"/>
<stop offset="0.348958" stop-color="#C0B7E8"/>
<stop offset="0.6875" stop-color="#8176AF"/>
<stop offset="1" stop-color="#343045"/>
</linearGradient>
<linearGradient id="paint9_linear_38_9" x1="1448.5" y1="4886.86" x2="13.5" y2="4886.86" gradientUnits="userSpaceOnUse">
<stop stop-color="#343045"/>
<stop offset="0.348958" stop-color="#C0B7E8"/>
<stop offset="0.6875" stop-color="#8176AF"/>
<stop offset="1" stop-color="#343045"/>
</linearGradient>
<clipPath id="clip0_38_9">
<rect width="1440" height="5597" fill="white"/>
</clipPath>
</defs>
</svg>
